<?xml version="1.0" encoding="UTF-8" standalone="no"?>
<!DOCTYPE svg PUBLIC "-//W3C//DTD SVG 1.1//EN" "http://www.w3.org/Graphics/SVG/1.1/DTD/svg11.dtd">
<!-- Created with Vectornator (http://vectornator.io/) -->
<svg height="121px" width="230px" stroke-miterlimit="10" style="fill-rule:nonzero;clip-rule:evenodd;stroke-linecap:round;stroke-linejoin:round;" version="1.1" viewBox="0 0 250 131.655" width="100%" xml:space="preserve" xmlns="http://www.w3.org/2000/svg" xmlns:vectornator="http://vectornator.io" xmlns:xlink="http://www.w3.org/1999/xlink">
<defs>
<filter color-interpolation-filters="sRGB" filterUnits="userSpaceOnUse" height="130.014" id="Filter" width="250.027" x="1.38134" y="1.45865">
<feDropShadow dx="-8.26471e-06" dy="2.25" flood-color="#081035" flood-opacity="0.55" in="SourceGraphic" result="Shadow" stdDeviation="2.75"/>
</filter>
</defs>
<clipPath id="ArtboardFrame">
<rect height="131.655" width="250" x="0" y="0"/>
</clipPath>
<g clip-path="url(#ArtboardFrame)" id="Layer-1" vectornator:layerName="Layer 1">
<g filter="url(#Filter)" vectornator:layerName="Group 3" vectornator:shadowAngle="1.5708" vectornator:shadowColor="#081035" vectornator:shadowOffset="2.25" vectornator:shadowOpacity="0.55" vectornator:shadowRadius="5.5">
<g opacity="1" vectornator:layerName="Group 2">
<path d="M152.619 122.348C150.519 122.348 148.357 122.06 146.132 121.485C143.907 120.91 141.819 120.235 139.869 119.46C137.919 118.685 136.219 118.048 134.769 117.548C132.119 116.598 129.644 115.673 127.344 114.773C125.044 113.873 123.419 113.323 122.469 113.123C117.619 111.873 114.194 111.248 112.194 111.248C111.844 111.498 111.519 111.71 111.219 111.885C110.919 112.06 110.594 112.173 110.244 112.223C110.094 112.273 109.869 112.298 109.569 112.298C108.669 112.298 108.219 111.998 108.219 111.398C108.219 111.048 108.494 110.698 109.044 110.348C109.444 110.148 109.907 110.035 110.432 110.01C110.957 109.985 111.494 109.948 112.044 109.898C113.194 108.898 114.282 107.623 115.307 106.073C116.332 104.523 117.069 103.348 117.519 102.548C117.919 101.848 118.307 101.16 118.682 100.485C119.057 99.8104 119.444 99.1479 119.844 98.4979C119.044 98.6979 118.219 98.8854 117.369 99.0604C116.519 99.2354 115.694 99.3229 114.894 99.3229C113.444 99.3229 112.132 99.0229 110.957 98.4229C109.782 97.8229 109.194 96.7229 109.194 95.1229C109.194 94.0729 109.657 93.0979 110.582 92.1979C111.507 91.2979 112.469 90.8479 113.469 90.8479C114.069 90.8479 114.369 91.0979 114.369 91.5979C114.369 91.8979 114.144 92.0479 113.694 92.0479C113.144 92.0479 112.644 92.3729 112.194 93.0229C111.744 93.6729 111.519 94.3479 111.519 95.0479C111.519 95.5479 111.682 96.0354 112.007 96.5104C112.332 96.9854 112.894 97.2729 113.694 97.3729C114.444 97.5229 115.244 97.5979 116.094 97.5979C117.544 97.5979 119.019 97.3979 120.519 96.9979C121.219 95.5979 121.882 94.2104 122.507 92.8354C123.132 91.4604 123.744 90.0979 124.344 88.7479C125.594 85.9979 126.869 83.3229 128.169 80.7229C129.469 78.1229 130.744 75.7979 131.994 73.7479C133.244 71.6979 134.369 70.1729 135.369 69.1729C137.269 67.3729 139.182 66.0979 141.107 65.3479C143.032 64.5979 144.769 64.2229 146.319 64.2229C146.619 64.2229 146.919 64.2354 147.219 64.2604C147.519 64.2854 147.794 64.3229 148.044 64.3729C149.894 64.6729 151.194 65.3104 151.944 66.2854C152.694 67.2604 153.069 68.4229 153.069 69.7729C153.069 70.4729 152.994 71.1979 152.844 71.9479C152.194 75.0979 150.882 78.0479 148.907 80.7979C146.932 83.5479 144.544 86.0354 141.744 88.2604C138.944 90.4854 135.957 92.3729 132.782 93.9229C129.607 95.4729 126.519 96.5979 123.519 97.2979C122.869 98.3979 122.182 99.4854 121.457 100.56C120.732 101.635 119.944 102.698 119.094 103.748C118.594 104.498 117.869 105.46 116.919 106.635C115.969 107.81 114.994 108.898 113.994 109.898C114.694 109.948 115.457 110.01 116.282 110.085C117.107 110.16 117.994 110.273 118.944 110.423C123.094 111.073 127.257 112.035 131.432 113.31C135.607 114.585 139.744 115.748 143.844 116.798C144.994 117.098 146.632 117.473 148.757 117.923C150.882 118.373 152.869 118.598 154.719 118.598C156.519 118.598 157.894 118.273 158.844 117.623C159.594 117.173 159.969 116.548 159.969 115.748C159.969 115.148 159.694 114.648 159.144 114.248C158.844 113.998 158.694 113.798 158.694 113.648C158.694 113.148 158.994 113.073 159.594 113.423C160.244 113.873 160.707 114.398 160.982 114.998C161.257 115.598 161.394 116.223 161.394 116.873C161.394 117.623 161.257 118.31 160.982 118.935C160.707 119.56 160.369 119.998 159.969 120.248C157.919 121.648 155.469 122.348 152.619 122.348ZM124.644 95.5729C130.194 93.1729 135.069 90.2479 139.269 86.7979C143.469 83.3479 146.794 78.7979 149.244 73.1479C150.044 71.3979 150.444 69.8729 150.444 68.5729C150.444 67.5229 150.119 66.6979 149.469 66.0979C149.119 65.6479 148.544 65.4229 147.744 65.4229C146.094 65.4229 144.394 65.9979 142.644 67.1479C141.144 68.2479 139.732 69.6979 138.407 71.4979C137.082 73.2979 135.844 75.1979 134.694 77.1979C133.544 79.1979 132.532 81.0854 131.657 82.8604C130.782 84.6354 130.044 86.0479 129.444 87.0979C129.044 87.8979 128.432 89.0729 127.607 90.6229C126.782 92.1729 125.794 93.8229 124.644 95.5729Z" fill="#ffffff" fill-rule="nonzero" opacity="1" stroke="none"/>
<path d="M147.819 110.873C146.419 110.873 145.194 110.548 144.144 109.898C142.394 108.848 141.519 106.948 141.519 104.198C141.519 103.048 141.719 101.723 142.119 100.223C142.469 98.9729 143.094 97.6104 143.994 96.1354C144.894 94.6604 145.957 93.2479 147.182 91.8979C148.407 90.5479 149.744 89.4479 151.194 88.5979C152.644 87.7479 154.094 87.3229 155.544 87.3229C156.144 87.3229 156.669 87.3979 157.119 87.5479C157.719 87.7479 158.232 88.1104 158.657 88.6354C159.082 89.1604 159.294 89.8229 159.294 90.6229C159.294 91.4729 159.082 91.9479 158.657 92.0479C158.232 92.1479 158.019 92.0479 158.019 91.7479C158.019 91.6479 158.032 91.5479 158.057 91.4479C158.082 91.3479 158.094 91.2729 158.094 91.2229C158.094 90.8229 157.982 90.4604 157.757 90.1354C157.532 89.8104 157.119 89.6479 156.519 89.6479C155.719 89.6479 154.732 90.0729 153.557 90.9229C152.382 91.7729 151.182 92.9104 149.957 94.3354C148.732 95.7604 147.657 97.3229 146.732 99.0229C145.807 100.723 145.194 102.423 144.894 104.123C144.844 104.373 144.807 104.61 144.782 104.835C144.757 105.06 144.744 105.298 144.744 105.548C144.744 106.698 145.007 107.66 145.532 108.435C146.057 109.21 146.894 109.598 148.044 109.598C149.444 109.598 150.794 109.06 152.094 107.985C153.394 106.91 154.557 105.623 155.582 104.123C156.607 102.623 157.369 101.298 157.869 100.148C158.269 99.2479 158.544 98.4729 158.694 97.8229C158.844 97.1729 158.919 96.6229 158.919 96.1729C158.919 95.7729 158.882 95.4229 158.807 95.1229C158.732 94.8229 158.644 94.5729 158.544 94.3729C158.444 94.0729 158.394 93.8479 158.394 93.6979C158.394 93.2979 158.557 92.9729 158.882 92.7229C159.207 92.4729 159.544 92.3479 159.894 92.3479C160.194 92.3479 160.519 92.4479 160.869 92.6479C161.269 92.7479 161.819 92.8229 162.519 92.8729C163.219 92.9229 163.969 92.9479 164.769 92.9479C165.619 92.9479 166.482 92.9229 167.357 92.8729C168.232 92.8229 168.994 92.7229 169.644 92.5729C169.744 92.5229 169.894 92.4979 170.094 92.4979C170.444 92.4979 170.619 92.5979 170.619 92.7979C170.619 92.9979 170.444 93.1729 170.094 93.3229C168.344 94.1229 166.782 94.5479 165.407 94.5979C164.032 94.6479 162.844 94.6729 161.844 94.6729C161.944 95.9229 161.669 97.2604 161.019 98.6854C160.369 100.11 159.694 101.373 158.994 102.473C158.144 103.723 157.169 104.998 156.069 106.298C154.969 107.598 153.744 108.685 152.394 109.56C151.044 110.435 149.519 110.873 147.819 110.873Z" fill="#ffffff" fill-rule="nonzero" opacity="1" stroke="none"/>
<path d="M170.394 112.448C169.444 112.448 168.794 112.048 168.444 111.248C168.094 110.448 167.944 109.648 167.994 108.848C168.244 107.398 168.607 105.91 169.082 104.385C169.557 102.86 170.019 101.348 170.469 99.8479C170.569 99.4979 170.694 99.0479 170.844 98.4979C170.994 97.9479 171.144 97.3479 171.294 96.6979C170.944 97.1979 170.557 97.7479 170.132 98.3479C169.707 98.9479 169.269 99.5729 168.819 100.223C168.619 100.473 168.394 100.598 168.144 100.598C167.944 100.598 167.794 100.485 167.694 100.26C167.594 100.035 167.644 99.7979 167.844 99.5479C168.994 97.9479 169.894 96.5354 170.544 95.3104C171.194 94.0854 171.644 93.0979 171.894 92.3479C171.994 91.3479 171.882 90.5104 171.557 89.8354C171.232 89.1604 170.644 88.8229 169.794 88.8229C169.644 88.8229 169.494 88.8354 169.344 88.8604C169.194 88.8854 169.019 88.9229 168.819 88.9729C168.769 88.9729 168.732 88.9854 168.707 89.0104C168.682 89.0354 168.644 89.0479 168.594 89.0479C168.444 89.0479 168.369 88.9729 168.369 88.8229C168.369 88.6729 168.519 88.3979 168.819 87.9979C169.019 87.8479 169.394 87.7354 169.944 87.6604C170.494 87.5854 171.019 87.5229 171.519 87.4729C172.019 87.4229 172.319 87.3979 172.419 87.3979C173.119 87.3979 173.769 87.4479 174.369 87.5479C174.969 87.6479 175.469 87.9479 175.869 88.4479C176.119 88.6979 176.319 89.0229 176.469 89.4229C176.619 89.8229 176.644 90.2229 176.544 90.6229C176.544 90.9229 176.407 91.4354 176.132 92.1604C175.857 92.8854 175.557 93.6729 175.232 94.5229C174.907 95.3729 174.607 96.1354 174.332 96.8104C174.057 97.4854 173.894 97.9479 173.844 98.1979C173.344 99.5979 172.844 101.148 172.344 102.848C171.844 104.548 171.644 105.848 171.744 106.748C174.094 103.648 176.494 100.548 178.944 97.4479C181.394 94.3479 184.044 91.4729 186.894 88.8229C188.044 87.6729 189.219 86.6104 190.419 85.6354C191.619 84.6604 192.969 83.8729 194.469 83.2729C195.119 83.0229 195.719 82.8979 196.269 82.8979C197.069 82.8979 197.769 83.0479 198.369 83.3479C198.969 83.6479 199.369 83.9979 199.569 84.3979C199.769 84.5479 199.869 84.8229 199.869 85.2229C199.869 85.8229 199.669 86.1229 199.269 86.1229C199.169 86.1229 198.969 86.0229 198.669 85.8229C198.419 85.5729 198.044 85.4479 197.544 85.4479C197.044 85.4479 196.569 85.4479 196.119 85.4479C195.069 85.4479 193.757 85.9729 192.182 87.0229C190.607 88.0729 188.907 89.4479 187.082 91.1479C185.257 92.8479 183.444 94.6979 181.644 96.6979C179.844 98.6979 178.182 100.698 176.657 102.698C175.132 104.698 173.882 106.498 172.907 108.098C171.932 109.698 171.394 110.923 171.294 111.773C171.294 112.023 171.169 112.198 170.919 112.298C170.669 112.398 170.494 112.448 170.394 112.448Z" fill="#ffffff" fill-rule="nonzero" opacity="1" stroke="none"/>
<path d="M198.369 111.173C196.119 111.173 194.169 110.648 192.519 109.598C190.869 108.548 190.044 106.948 190.044 104.798C190.044 103.648 190.394 102.248 191.094 100.598C191.594 99.4479 192.519 98.1229 193.869 96.6229C195.219 95.1229 196.794 93.6604 198.594 92.2354C200.394 90.8104 202.219 89.6354 204.069 88.7104C205.919 87.7854 207.594 87.3229 209.094 87.3229C209.644 87.3229 210.144 87.3979 210.594 87.5479C211.444 87.8479 212.032 88.3229 212.357 88.9729C212.682 89.6229 212.844 90.2979 212.844 90.9979C212.844 91.6479 212.744 92.2729 212.544 92.8729C212.344 93.4729 212.094 93.9979 211.794 94.4479C210.894 95.7979 209.607 96.9979 207.932 98.0479C206.257 99.0979 204.557 99.9229 202.832 100.523C201.107 101.123 199.694 101.473 198.594 101.573L198.444 101.573C197.794 101.573 197.469 101.373 197.469 100.973C197.469 100.723 197.669 100.598 198.069 100.598C199.269 100.498 200.782 99.9354 202.607 98.9104C204.432 97.8854 206.044 96.8229 207.444 95.7229C208.044 95.2229 208.757 94.5229 209.582 93.6229C210.407 92.7229 210.819 91.8479 210.819 90.9979C210.819 90.0979 210.394 89.6479 209.544 89.6479C209.094 89.6479 208.632 89.7479 208.157 89.9479C207.682 90.1479 207.294 90.2979 206.994 90.3979C205.544 91.0979 203.944 92.1854 202.194 93.6604C200.444 95.1354 198.857 96.7854 197.432 98.6104C196.007 100.435 195.019 102.273 194.469 104.123C194.319 104.523 194.219 104.91 194.169 105.285C194.119 105.66 194.094 106.023 194.094 106.373C194.094 107.573 194.482 108.423 195.257 108.923C196.032 109.423 196.969 109.673 198.069 109.673C199.719 109.673 201.419 109.31 203.169 108.585C204.919 107.86 206.619 106.923 208.269 105.773C209.919 104.623 211.432 103.385 212.807 102.06C214.182 100.735 215.344 99.4479 216.294 98.1979C216.444 97.9979 216.619 97.8854 216.819 97.8604C217.019 97.8354 217.144 97.8729 217.194 97.9729C217.394 98.0229 217.494 98.1604 217.494 98.3854C217.494 98.6104 217.444 98.8229 217.344 99.0229C215.944 100.973 214.257 102.873 212.282 104.723C210.307 106.573 208.132 108.11 205.757 109.335C203.382 110.56 200.919 111.173 198.369 111.173Z" fill="#ffffff" fill-rule="nonzero" opacity="1" stroke="none"/>
<path d="M225.369 110.948C224.519 110.948 223.769 110.76 223.119 110.385C222.469 110.01 222.019 109.298 221.769 108.248C221.619 107.698 221.544 107.148 221.544 106.598C221.544 105.098 221.932 103.635 222.707 102.21C223.482 100.785 224.394 99.4604 225.444 98.2354C226.494 97.0104 227.394 95.9729 228.144 95.1229C228.544 94.7229 229.007 94.1979 229.532 93.5479C230.057 92.8979 230.319 92.2479 230.319 91.5979C230.319 91.1979 230.119 90.8104 229.719 90.4354C229.319 90.0604 228.594 89.7979 227.544 89.6479C226.944 89.5479 226.382 89.4604 225.857 89.3854C225.332 89.3104 224.794 89.2729 224.244 89.2729C222.844 91.1729 221.482 93.0854 220.157 95.0104C218.832 96.9354 217.419 98.8229 215.919 100.673C215.569 101.023 215.269 101.198 215.019 101.198C214.719 101.198 214.569 101.048 214.569 100.748C214.569 100.448 214.719 100.148 215.019 99.8479C217.719 96.5479 220.044 93.0229 221.994 89.2729C221.744 89.2729 221.369 89.2604 220.869 89.2354C220.369 89.2104 219.969 89.1729 219.669 89.1229C219.319 89.0229 219.044 88.8729 218.844 88.6729C218.644 88.4729 218.544 88.2729 218.544 88.0729C218.544 87.7729 218.669 87.5979 218.919 87.5479C219.569 87.3479 220.269 87.0479 221.019 86.6479C221.769 86.2479 222.469 85.7229 223.119 85.0729C223.819 84.3729 224.469 83.6354 225.069 82.8604C225.669 82.0854 226.144 81.4979 226.494 81.0979C226.844 80.8479 227.219 80.7229 227.619 80.7229C227.869 80.7229 228.107 80.7979 228.332 80.9479C228.557 81.0979 228.669 81.3229 228.669 81.6229C228.669 81.9729 228.519 82.4229 228.219 82.9729C227.769 83.6729 227.282 84.4479 226.757 85.2979C226.232 86.1479 225.744 86.9229 225.294 87.6229C226.194 87.6729 227.094 87.7229 227.994 87.7729C228.894 87.8229 229.819 87.8479 230.769 87.8479C231.269 87.8479 231.757 87.8354 232.232 87.8104C232.707 87.7854 233.194 87.7729 233.694 87.7729C235.194 87.7729 235.944 88.1479 235.944 88.8979C235.944 89.3979 235.682 90.0104 235.157 90.7354C234.632 91.4604 233.994 92.2479 233.244 93.0979C231.544 95.0479 230.094 97.0979 228.894 99.2479C227.694 101.398 226.894 103.048 226.494 104.198C226.094 105.398 225.894 106.298 225.894 106.898C225.894 108.098 226.369 108.698 227.319 108.698C228.169 108.698 229.207 108.273 230.432 107.423C231.657 106.573 232.919 105.535 234.219 104.31C235.519 103.085 236.694 101.885 237.744 100.71C238.794 99.5354 239.544 98.6479 239.994 98.0479C240.094 97.8979 240.244 97.8229 240.444 97.8229C240.644 97.8229 240.819 97.9104 240.969 98.0854C241.119 98.2604 241.119 98.4729 240.969 98.7229C240.419 99.5729 239.619 100.635 238.569 101.91C237.519 103.185 236.344 104.448 235.044 105.698C233.744 106.948 232.469 108.023 231.219 108.923C230.569 109.423 229.682 109.885 228.557 110.31C227.432 110.735 226.369 110.948 225.369 110.948Z" fill="#ffffff" fill-rule="nonzero" opacity="1" stroke="none"/>
</g>
<g opacity="1" vectornator:layerName="Group 1">
<path d="M21.8704 77.0948L8.25635 77.0948L8.25635 9.0721L21.8704 9.0721L21.8704 77.0948Z" fill="#ffffff" fill-rule="nonzero" opacity="1" stroke="none"/>
<path d="M72.7688 77.0948L30.4088 77.0948L51.8022 39.2886L30.4088 39.2886L30.4088 26.3861L72.7688 26.3861L51.3753 64.1923L72.7688 64.1923L72.7688 77.0948Z" fill="#ffffff" fill-rule="nonzero" opacity="1" stroke="none"/>
<path d="M128.363 77.0948L125.233 77.0948L120.204 70.1217C118.971 71.2286 117.667 72.2642 116.291 73.2288C114.915 74.1933 113.469 75.0313 111.951 75.7429C110.433 76.4544 108.875 77.0157 107.278 77.4268C105.681 77.8379 104.06 78.0435 102.416 78.0435C98.8426 78.0435 95.4825 77.4426 92.336 76.2409C89.1894 75.0392 86.4381 73.292 84.0822 70.9993C81.7262 68.7066 79.8683 65.9 78.5085 62.5795C77.1487 59.259 76.4688 55.4799 76.4688 51.2424C76.4688 47.2894 77.1487 43.6606 78.5085 40.3559C79.8683 37.0512 81.7262 34.213 84.0822 31.8412C86.4381 29.4694 89.1894 27.6273 92.336 26.3149C95.4825 25.0026 98.8426 24.3464 102.416 24.3464C104.06 24.3464 105.689 24.5519 107.302 24.963C108.915 25.3741 110.48 25.9434 111.998 26.6707C113.516 27.3981 114.963 28.2519 116.338 29.2322C117.714 30.2126 119.003 31.272 120.204 32.4104L125.233 26.3861L128.363 26.3861L128.363 77.0948ZM115.319 51.2424C115.319 49.4714 114.979 47.7558 114.299 46.0956C113.619 44.4353 112.694 42.9648 111.524 41.6841C110.354 40.4033 108.986 39.3756 107.421 38.6008C105.855 37.826 104.187 37.4386 102.416 37.4386C100.645 37.4386 98.977 37.739 97.4116 38.3399C95.8462 38.9407 94.4864 39.8262 93.3321 40.9963C92.1779 42.1663 91.2687 43.6131 90.6046 45.3366C89.9405 47.0601 89.6084 49.0287 89.6084 51.2424C89.6084 53.456 89.9405 55.4246 90.6046 57.1481C91.2687 58.8716 92.1779 60.3184 93.3321 61.4885C94.4864 62.6585 95.8462 63.544 97.4116 64.1448C98.977 64.7457 100.645 65.0461 102.416 65.0461C104.187 65.0461 105.855 64.6587 107.421 63.884C108.986 63.1092 110.354 62.0814 111.524 60.8006C112.694 59.5199 113.619 58.0494 114.299 56.3891C114.979 54.7289 115.319 53.0133 115.319 51.2424Z" fill="#ffffff" fill-rule="nonzero" opacity="1" stroke="none"/>
<path d="M187.421 77.0948L184.29 77.0948L179.262 70.1217C178.028 71.2286 176.724 72.2642 175.348 73.2288C173.973 74.1933 172.526 75.0313 171.008 75.7429C169.49 76.4544 167.933 77.0157 166.336 77.4268C164.739 77.8379 163.118 78.0435 161.473 78.0435C157.9 78.0435 154.54 77.4426 151.393 76.2409C148.247 75.0392 145.495 73.292 143.14 70.9993C140.784 68.7066 138.926 65.9 137.566 62.5795C136.206 59.259 135.526 55.4799 135.526 51.2424C135.526 47.2894 136.206 43.6606 137.566 40.3559C138.926 37.0512 140.784 34.213 143.14 31.8412C145.495 29.4694 148.247 27.6273 151.393 26.3149C154.54 25.0026 157.9 24.3464 161.473 24.3464C163.118 24.3464 164.746 24.5519 166.359 24.963C167.972 25.3741 169.537 25.9434 171.055 26.6707C172.573 27.3981 174.02 28.2519 175.396 29.2322C176.771 30.2126 178.06 31.272 179.262 32.4104L184.29 26.3861L187.421 26.3861L187.421 77.0948ZM174.376 51.2424C174.376 49.4714 174.036 47.7558 173.356 46.0956C172.676 44.4353 171.751 42.9648 170.581 41.6841C169.411 40.4033 168.043 39.3756 166.478 38.6008C164.912 37.826 163.244 37.4386 161.473 37.4386C159.702 37.4386 158.034 37.739 156.469 38.3399C154.904 38.9407 153.544 39.8262 152.389 40.9963C151.235 42.1663 150.326 43.6131 149.662 45.3366C148.998 47.0601 148.666 49.0287 148.666 51.2424C148.666 53.456 148.998 55.4246 149.662 57.1481C150.326 58.8716 151.235 60.3184 152.389 61.4885C153.544 62.6585 154.904 63.544 156.469 64.1448C158.034 64.7457 159.702 65.0461 161.473 65.0461C163.244 65.0461 164.912 64.6587 166.478 63.884C168.043 63.1092 169.411 62.0814 170.581 60.8006C171.751 59.5199 172.676 58.0494 173.356 56.3891C174.036 54.7289 174.376 53.0133 174.376 51.2424Z" fill="#ffffff" fill-rule="nonzero" opacity="1" stroke="none"/>
<path d="M210.332 77.0948L197.287 77.0948L197.287 6.08365L210.332 6.08365L210.332 50.8629L229.638 26.3861L244.533 26.3861L227.694 47.5424L244.533 77.0948L229.638 77.0948L219.345 58.6423L210.332 70.5961L210.332 77.0948Z" fill="#ffffff" fill-rule="nonzero" opacity="1" stroke="none"/>
</g>
</g>
</g>
</svg>
