<svg xmlns="http://www.w3.org/2000/svg"  viewBox="0 0 50 50" width="40px" height="40px"><path d="M16.67 9.33C7.47 9.33 0 16.8 0 26c0 8.5 6.38 15.53 14.61 16.54l3.72-11.82C17.81 30.9 17.25 31 16.67 31c-2.77 0-5-2.23-5-5s2.23-5 5-5c1.69 0 3.18.84 4.08 2.12 1.75-5.12 3.34-8.6 5.22-10.95C23.31 10.38 20.11 9.33 16.67 9.33zM35.4 21.833c4.234 1.218 9.233 0 9.233 0-1.45 6.333-6.05 10.3-12.683 10.783-2.55 5.917-8.433 10.05-15.283 10.05l5-15.891C26.807 10.44 29.441 9.333 41.63 9.333l8.37 0C48.6 15.5 43.775 20.211 35.4 21.833z" fill="white"/></svg>